<svg xmlns="http://www.w3.org/2000/svg" width="9" height="24" viewBox="0 0 15 24" fill="none">
  <path d="M6.01796 0V2.99401H3.77245C1.73653 2.99401 0.0299401 4.7006 0.0299401 6.73653V8.23353C0.0299401 10.2695 1.34731 11.9461 3.29341 12.4551L10.9581 14.4311C11.3772 14.5509 11.976 15.2994 11.976 15.7485V17.2455C11.976 17.6647 11.6467 17.994 11.2275 17.994H3.74251C3.38323 17.994 3.11377 17.8742 2.99401 17.8144V15H0V17.994C0 19.012 0.598802 19.8802 1.31737 20.3293C2.00599 20.8084 2.87425 20.988 3.74251 20.988H5.98802V23.982H8.98204V20.988H11.2275C13.2934 20.988 14.9701 19.3114 14.9701 17.2455V15.7485C14.9701 13.7126 13.6527 12.0359 11.7066 11.5269L4.04192 9.5509C3.62275 9.43114 3.02395 8.68263 3.02395 8.23353V6.73653C3.02395 6.31736 3.35329 5.98802 3.77245 5.98802H11.2575C11.5868 5.98802 11.8862 6.10778 12.006 6.16766V8.98203H15V5.98802C15 4.97006 14.4012 4.1018 13.6826 3.65269C12.994 3.17365 12.1257 2.99401 11.2575 2.99401H9.01198V0L6.01796 0Z" fill="white"/>
</svg>