<svg xmlns="http://www.w3.org/2000/svg" width="15" height="19" viewBox="0 0 25 19" fill="none">
  <path d="M1.33263 0.00634216C0.918149 0.0726585 0.546991 0.300909 0.300805 0.640881C0.0546178 0.980854 -0.0464324 1.4047 0.019884 1.81918C0.0862003 2.23365 0.314451 2.60481 0.654423 2.851C0.994395 3.09718 1.41824 3.19823 1.83272 3.13192H6.52108L6.80238 3.91331L8.08387 7.82028L9.36535 11.7273C9.49038 12.1336 10.0217 12.5086 10.4281 12.5086H21.3676C21.8051 12.5086 22.3052 12.1336 22.4303 11.7273L24.962 3.91331C25.087 3.50699 24.8995 3.13192 24.4619 3.13192H10.5843L9.39661 0.881503C9.27011 0.623204 9.07478 0.404824 8.83213 0.250411C8.58948 0.0959978 8.30892 0.0115416 8.02136 0.00634216L1.77021 0.00634216C1.67663 -0.00211405 1.58248 -0.00211405 1.4889 0.00634216C1.42645 0.00258809 1.36383 0.00258809 1.30137 0.00634216L1.33263 0.00634216ZM11.2094 15.6342C10.3343 15.6342 9.64666 16.3218 9.64666 17.197C9.64666 18.0722 10.3343 18.7598 11.2094 18.7598C12.0846 18.7598 12.7722 18.0722 12.7722 17.197C12.7722 16.3218 12.0846 15.6342 11.2094 15.6342ZM20.5862 15.6342C19.711 15.6342 19.0234 16.3218 19.0234 17.197C19.0234 18.0722 19.711 18.7598 20.5862 18.7598C21.4613 18.7598 22.149 18.0722 22.149 17.197C22.149 16.3218 21.4613 15.6342 20.5862 15.6342Z" fill="white"/>
</svg>