<svg width="25" height="25" viewBox="0 0 25 25" fill="none" xmlns="http://www.w3.org/2000/svg">
<path d="M10.8394 0.0309696C4.86223 0.0309696 0 4.8932 0 10.8703C0 16.8475 4.86223 21.7097 10.8394 21.7097C12.6666 21.7097 14.4628 21.2761 15.9803 20.44C16.1019 20.5862 16.2367 20.721 16.3829 20.8426L19.4799 23.9395C19.7659 24.2613 20.1146 24.5212 20.5046 24.7034C20.8947 24.8855 21.3179 24.986 21.7482 24.9986C22.1784 25.0113 22.6068 24.9359 23.0069 24.777C23.407 24.6181 23.7704 24.3792 24.0748 24.0748C24.3792 23.7704 24.6181 23.407 24.777 23.0069C24.9359 22.6068 25.0113 22.1784 24.9986 21.7482C24.986 21.3179 24.8855 20.8947 24.7034 20.5046C24.5212 20.1146 24.2613 19.7659 23.9395 19.4799L20.8426 16.3829C20.6917 16.232 20.5256 16.0971 20.347 15.9803C21.1832 14.4628 21.7097 12.6975 21.7097 10.8394C21.7097 4.86223 16.8475 0 10.8703 0L10.8394 0.0309696ZM10.8394 3.12793C15.1441 3.12793 18.5818 6.56556 18.5818 10.8703C18.5818 12.9143 17.8385 14.8035 16.5378 16.1971C16.5068 16.2281 16.4758 16.2591 16.4449 16.29C16.2986 16.4116 16.1638 16.5463 16.0423 16.6926C14.6796 17.9314 12.8214 18.6437 10.8084 18.6437C6.50362 18.6437 3.06599 15.2061 3.06599 10.9013C3.06599 6.59653 6.50362 3.1589 10.8084 3.1589L10.8394 3.12793Z" fill="white"/>
</svg>
